<?xml version="1.0" encoding="UTF-8"?>
<svg width="200" height="200" viewBox="0 0 200 200" fill="none" xmlns="http://www.w3.org/2000/svg">
  <defs>
    <filter id="cloud-glow" x="-50%" y="-50%" width="200%" height="200%">
      <feGaussianBlur stdDeviation="3" result="blur" />
      <feComposite in="SourceGraphic" in2="blur" operator="over" />
    </filter>
  </defs>
  
  <!-- Main cloud shape -->
  <path d="M165,100 C165,75 150,65 130,65 C130,40 110,25 85,25 C55,25 40,50 40,70 C20,70 10,85 10,105 C10,130 30,145 55,145 L145,145 C160,145 175,130 175,115 C175,105 170,100 165,100 Z" 
        fill="#FFFFFF" 
        filter="url(#cloud-glow)" />
  
  <!-- Kawaii face -->
  <!-- Eyes -->
  <circle cx="70" cy="90" r="7" fill="#333333" />
  <circle cx="110" cy="90" r="7" fill="#333333" />
  
  <!-- Blush spots -->
  <circle cx="55" cy="115" r="10" fill="#FFB8E0" opacity="0.7" />
  <circle cx="125" cy="115" r="10" fill="#FFB8E0" opacity="0.7" />
  
  <!-- Smile -->
  <path d="M75,110 Q90,125 105,110" stroke="#333333" stroke-width="3" stroke-linecap="round" fill="none" />
</svg>
