<?xml version="1.0" encoding="UTF-8"?>
<svg width="100" height="100" viewBox="0 0 100 100" xmlns="http://www.w3.org/2000/svg">
  <!-- Ribbon body -->
  <path d="M50,20 C65,20 80,15 80,10 C80,25 95,35 95,50 C95,65 80,75 80,90 C80,85 65,80 50,80 C35,80 20,85 20,90 C20,75 5,65 5,50 C5,35 20,25 20,10 C20,15 35,20 50,20 Z" fill="#ff86c8" />
  
  <!-- Ribbon middle -->
  <circle cx="50" cy="50" r="12" fill="#ffb8e0" />
  <circle cx="50" cy="50" r="8" fill="#fff" />
  
  <!-- Kawaii face -->
  <circle cx="44" cy="48" r="2" fill="#333" />
  <circle cx="56" cy="48" r="2" fill="#333" />
  <path d="M46,55 Q50,58 54,55" fill="none" stroke="#333" stroke-width="1.5" stroke-linecap="round" />
  
  <!-- Blush -->
  <circle cx="41" cy="52" r="3" fill="#ffb8e0" opacity="0.6" />
  <circle cx="59" cy="52" r="3" fill="#ffb8e0" opacity="0.6" />
</svg>
