<?xml version="1.0" encoding="UTF-8"?>
<svg width="100" height="100" viewBox="0 0 100 100" fill="none" xmlns="http://www.w3.org/2000/svg">
  <!-- Main heart shape -->
  <path d="M50 85C50 85 85 60.5 85 35.25C85 24.5 76.25 15 65 15C58.25 15 52.5 19 50 24.5C47.5 19 41.75 15 35 15C23.75 15 15 24.5 15 35.25C15 60.5 50 85 50 85Z" fill="#FF86C8" />
  
  <!-- Eyes -->
  <circle cx="35" cy="40" r="5" fill="white" />
  <circle cx="65" cy="40" r="5" fill="white" />
  <circle cx="35" cy="40" r="2.5" fill="#333333" />
  <circle cx="65" cy="40" r="2.5" fill="#333333" />
  
  <!-- Blush spots -->
  <circle cx="25" cy="52" r="4" fill="#FFB8E0" opacity="0.7" />
  <circle cx="75" cy="52" r="4" fill="#FFB8E0" opacity="0.7" />
  
  <!-- Smile -->
  <path d="M40 55C40 60 50 65 60 55" stroke="#333333" stroke-width="2" stroke-linecap="round" />
</svg>
